<?xml version="1.0" standalone="no"?>
<!DOCTYPE svg PUBLIC "-//W3C//DTD SVG 20010904//EN"
 "http://www.w3.org/TR/2001/REC-SVG-20010904/DTD/svg10.dtd">
<svg version="1.0" xmlns="http://www.w3.org/2000/svg"
 width="512.000000pt" height="512.000000pt" viewBox="0 0 512.000000 512.000000"
 preserveAspectRatio="xMidYMid meet">

<g transform="translate(0.000000,512.000000) scale(0.100000,-0.100000)"
fill="#000000" stroke="none">
<path d="M3370 5044 c-370 -79 -657 -347 -762 -710 -20 -69 -23 -101 -23 -254
0 -201 14 -266 89 -425 230 -485 820 -698 1302 -469 497 236 706 816 474 1312
-134 285 -397 488 -708 548 -93 18 -286 17 -372 -2z m398 -214 c325 -92 554
-377 570 -710 11 -240 -77 -457 -251 -616 -151 -137 -322 -204 -527 -204 -449
0 -808 382 -777 828 26 370 299 666 672 726 64 10 241 -3 313 -24z"/>
<path d="M63 3985 c-68 -29 -63 92 -61 -1641 l3 -1566 33 -29 32 -29 234 0
234 0 -29 29 c-29 29 -29 31 -29 145 l0 116 -124 0 c-100 0 -128 3 -140 16
-14 14 -16 163 -16 1495 l0 1479 -52 0 c-29 -1 -67 -7 -85 -15z"/>
<path d="M4608 3032 c-105 -105 -118 -122 -118 -153 0 -32 22 -57 304 -338
211 -210 306 -299 311 -290 12 18 8 410 -5 514 l-11 90 -147 148 c-192 190
-174 189 -334 29z"/>
<path d="M2760 787 c0 -204 2 -225 18 -240 27 -25 37 -22 116 33 40 27 79 50
87 50 8 0 44 -20 81 -45 125 -83 128 -78 128 202 l0 223 -215 0 -215 0 0 -223z"/>
</g>
</svg>
